<?xml version="1.0" encoding="UTF-8"?>
<svg id="Layer_1" xmlns="http://www.w3.org/2000/svg" width="7.7228in" height="2.3712in" version="1.1" viewBox="0 0 556.0444 170.726">
  <!-- Generator: Adobe Illustrator 30.1.0, SVG Export Plug-In . SVG Version: 2.1.1 Build 136)  -->
  <defs>
    <style>
      .st0 {
        fill: #e18932;
      }

      .st1 {
        fill: #004d88;
      }
    </style>
  </defs>
  <g>
    <path class="st1" d="M226.9166,48.1729V8.2058h15.8451v38.7563c0,7.8721,1.3123,12.6159,8.4783,12.6159s8.4773-4.7438,8.4773-12.6159V8.2058h15.8461v39.9671c0,16.5522-9.4877,24.7277-24.3234,24.7277s-24.3234-8.1754-24.3234-24.7277Z"/>
    <path class="st1" d="M301.095,8.2058v63.5844h-15.9471V8.2058h15.9471Z"/>
    <path class="st1" d="M331.0682,7.0954c15.1395,0,23.0121,8.7806,23.0121,21.4975v1.6151h-14.1301v-1.0094c0-6.0556-2.8264-9.9919-8.983-9.9919-4.1377,0-6.6613,2.4226-6.6613,6.0556,0,2.9274,1.716,4.7438,5.0472,5.8542l9.3857,3.1287c10.2952,3.4316,16.3508,8.4778,16.3508,18.6715,0,13.0197-9.5886,19.9838-22.4065,19.9838-15.3414,0-24.0205-8.4783-24.0205-21.397v-1.4127h14.231v.908c0,6.0561,3.3301,9.79,9.6886,9.79,4.3396,0,7.065-2.2203,7.065-5.8537,0-3.3306-1.817-4.9452-5.6518-6.1566l-9.6896-3.0278c-8.5782-2.725-15.0376-7.5698-15.0376-18.6715,0-11.8084,8.4773-19.9838,21.7998-19.9838Z"/>
    <path class="st1" d="M378.9256,8.2058v63.5844h-15.9471V8.2058h15.9471Z"/>
    <path class="st1" d="M422.4232,8.2058l17.9649,63.5844h-16.047l-3.3311-12.7169h-17.6621l-3.3301,12.7169h-14.7357l17.9649-63.5844h19.1763ZM406.679,46.5583h11.1018l-5.2481-20.0848h-.4038l-5.4499,20.0848Z"/>
    <path class="st1" d="M479.6462,41.5116h.4038V8.2058h14.5339v63.5844h-12.2122l-20.5895-36.2332h-.4038v36.2332h-14.6348V8.2058h14.9376l17.9649,33.3058Z"/>
    <path class="st1" d="M538.0795,8.2058l17.9649,63.5844h-16.047l-3.3311-12.7169h-17.6621l-3.3301,12.7169h-14.7357l17.9649-63.5844h19.1763ZM522.3353,46.5583h11.1018l-5.2481-20.0848h-.4038l-5.4499,20.0848Z"/>
    <path class="st1" d="M193.5133,7.0954c-17.2595,0-25.4338,12.4141-25.4338,30.6824v4.4405c0,5.4136.724,10.3074,2.1834,14.522h6.8792l-1.5637,2.816-2.0725,3.7321c4.1744,6.0745,10.7962,9.6122,20.0074,9.6122,17.2583,0,25.4337-12.4141,25.4337-30.6824v-4.4405c0-18.2683-8.1754-30.6824-25.4337-30.6824ZM202.4953,45.6498c0,9.891-3.2292,14.0291-8.9819,14.0291s-8.983-4.1382-8.983-14.0291v-11.3036c0-9.891,3.2303-14.0291,8.983-14.0291s8.9819,4.1382,8.9819,14.0291v11.3036Z"/>
    <polygon class="st1" points="130.4204 8.1722 130.4204 71.7565 166.6261 71.7565 173.9118 58.6359 146.3675 58.6359 146.3675 8.1722 130.4204 8.1722"/>
  </g>
  <g>
    <path class="st1" d="M180.3917,87.5721h8.3346v2.5547h-5.6543v2.9106h5.1302v2.513h-5.1302v3.0362h5.7377v2.5755h-8.418v-13.59Z"/>
    <path class="st1" d="M203.7146,87.3627c2.45,0,4.5019,1.152,5.7586,3.0366l-2.3031,1.4236c-.7752-1.1933-1.9685-1.9055-3.4555-1.9055-2.4708,0-4.2924,2.0524-4.2924,4.4393s1.8216,4.4393,4.2924,4.4393c1.487,0,2.6803-.7122,3.4555-1.9055l2.3031,1.4236c-1.2567,1.8846-3.3086,3.0366-5.7586,3.0366-4.2507,0-7.0353-3.1409-7.0353-6.994s2.7846-6.994,7.0353-6.994Z"/>
    <path class="st1" d="M216.8187,94.3775c0-3.8735,2.994-7.0149,7.0353-7.0149,3.9578,0,7.0361,3.0783,7.0361,6.994,0,3.9365-3.0992,6.994-7.0361,6.994-3.8944,0-7.0353-3.0153-7.0353-6.9731ZM228.1464,94.3775c0-2.45-1.8425-4.4602-4.2924-4.4602-2.4708,0-4.2924,2.0524-4.2924,4.481,0,2.45,1.8633,4.3976,4.2924,4.3976s4.2924-1.9685,4.2924-4.4185Z"/>
    <path class="st1" d="M239.5741,87.5721h2.5125l6.9101,9.0672v-9.0672h2.7011v13.59h-2.5125l-6.9101-9.0876v9.0876h-2.7011v-13.59Z"/>
    <path class="st1" d="M260.3836,94.3775c0-3.8735,2.994-7.0149,7.0353-7.0149,3.9578,0,7.0361,3.0783,7.0361,6.994,0,3.9365-3.0992,6.994-7.0361,6.994-3.8944,0-7.0353-3.0153-7.0353-6.9731ZM271.7113,94.3775c0-2.45-1.8425-4.4602-4.2924-4.4602-2.4708,0-4.2924,2.0524-4.2924,4.481,0,2.45,1.8633,4.3976,4.2924,4.3976s4.2924-1.9685,4.2924-4.4185Z"/>
    <path class="st1" d="M298.1742,87.5721v13.59h-2.7229v-9.9463l-3.3078,9.9463h-2.9949l-3.2878-9.7999v9.7999h-2.722v-13.59h4.1464l3.3712,10.3652,3.3503-10.3652h4.1673Z"/>
    <path class="st1" d="M307.6742,87.5721h2.722v13.59h-2.722v-13.59Z"/>
    <path class="st1" d="M326.1189,87.3627c2.45,0,4.5019,1.152,5.7586,3.0366l-2.3031,1.4236c-.7752-1.1933-1.9685-1.9055-3.4555-1.9055-2.4708,0-4.2924,2.0524-4.2924,4.4393s1.8216,4.4393,4.2924,4.4393c1.487,0,2.6803-.7122,3.4555-1.9055l2.3031,1.4236c-1.2567,1.8846-3.3086,3.0366-5.7586,3.0366-4.2507,0-7.0353-3.1409-7.0353-6.994s2.7846-6.994,7.0353-6.994Z"/>
    <path class="st1" d="M350.9879,87.5721h5.2563c4.2507,0,6.7633,2.9736,6.7633,6.7845,0,3.8531-2.576,6.8054-6.7633,6.8054h-5.2563v-13.59ZM356.2442,98.6074c2.3448,0,4.0204-1.5496,4.0204-4.2507,0-2.6803-1.6756-4.2299-4.0204-4.2299h-2.5551v8.4806h2.5551Z"/>
    <path class="st1" d="M371.7131,87.5721h8.3346v2.5547h-5.6543v2.9106h5.1302v2.513h-5.1302v3.0362h5.7377v2.5755h-8.418v-13.59Z"/>
    <path class="st1" d="M387.6227,87.5721h2.8897l3.8944,10.8467,3.9161-10.8467h2.8054l-5.1085,13.59h-3.2878l-5.1094-13.59Z"/>
    <path class="st1" d="M409.2274,87.5721h8.3346v2.5547h-5.6543v2.9106h5.1302v2.513h-5.1302v3.0362h5.7377v2.5755h-8.418v-13.59Z"/>
    <path class="st1" d="M426.5405,87.5721h2.974v10.9727h5.4648v2.6173h-8.4389v-13.59Z"/>
    <path class="st1" d="M441.9277,94.3775c0-3.8735,2.994-7.0149,7.0353-7.0149,3.9578,0,7.0361,3.0783,7.0361,6.994,0,3.9365-3.0992,6.994-7.0361,6.994-3.8944,0-7.0353-3.0153-7.0353-6.9731ZM453.2554,94.3775c0-2.45-1.8425-4.4602-4.2924-4.4602-2.4708,0-4.2924,2.0524-4.2924,4.481,0,2.45,1.8633,4.3976,4.2924,4.3976s4.2924-1.9685,4.2924-4.4185Z"/>
    <path class="st1" d="M464.6831,87.5721h4.8999c2.7011,0,4.6905,2.0102,4.6905,4.5649,0,2.513-1.9259,4.5649-4.6905,4.5649h-2.1779v4.4602h-2.722v-13.59ZM469.583,94.1894c1.1933,0,1.9893-.9004,1.9893-2.0524,0-1.1937-.7961-2.0519-1.9893-2.0519h-2.1779v4.1043h2.1779Z"/>
    <path class="st1" d="M497.7224,87.5721v13.59h-2.7229v-9.9463l-3.3078,9.9463h-2.9949l-3.2878-9.7999v9.7999h-2.722v-13.59h4.1464l3.3712,10.3652,3.3503-10.3652h4.1673Z"/>
    <path class="st1" d="M507.2224,87.5721h8.3346v2.5547h-5.6543v2.9106h5.1302v2.513h-5.1302v3.0362h5.7377v2.5755h-8.418v-13.59Z"/>
    <path class="st1" d="M524.5356,87.5721h2.5125l6.9101,9.0672v-9.0672h2.702v13.59h-2.5134l-6.9101-9.0876v9.0876h-2.7011v-13.59Z"/>
    <path class="st1" d="M549.1134,90.1059h-4.2081v-2.5338h11.1391v2.5338h-4.2081v11.0561h-2.7229v-11.0561Z"/>
  </g>
  <g>
    <path class="st0" d="M1.8416,3.8179c-.5507,0-1.022-.4179-1.077-.9765-.0587-.5957.3761-1.1257.9718-1.185L18.4527.0038c.5957-.0487,1.1262.3766,1.1844.9712.0587.5957-.3761,1.1257-.9718,1.185L1.949,3.8126c-.036.0032-.0719.0053-.1074.0053Z"/>
    <path class="st0" d="M1.876,8.6254L55.9393,2.4626c.5946-.0677,1.021-.6041.9533-1.1987-.0667-.5946-.6009-1.0252-1.1987-.9533L1.6305,6.4735c-.5946.0677-1.0215.6041-.9538,1.1987.063.5533.5316.9607,1.0749.9607.0413,0,.0825-.0021.1243-.0074Z"/>
    <path class="st0" d="M1.8009,13.5272L88.9214,2.2764c.5935-.0772,1.0125-.62.9363-1.2135-.0772-.5935-.62-1.003-1.2135-.9363L1.5237,11.3773c-.5935.0772-1.0125.62-.9358,1.2135.0704.547.5364.9448,1.0728.9448.0466,0,.0931-.0032.1402-.0085Z"/>
    <path class="st0" d="M1.7252,18.5178L103.3367,3.8539c.5925-.0857,1.003-.6359.9183-1.2273-.0857-.5925-.6348-.9998-1.2273-.9183L1.4152,16.3721c-.592.0857-1.003.6359-.9173,1.2273.0778.5396.5412.9289,1.0707.9289.0518,0,.1037-.0032.1566-.0106Z"/>
    <path class="st0" d="M1.6469,23.5951L107.702,6.6808c.5914-.0942.9935-.6496.8993-1.24s-.6496-.9935-1.24-.8993L1.3052,21.4558c-.5909.0942-.9935.6496-.8988,1.24.0846.5332.5454.9131,1.0681.9131.0571,0,.1143-.0042.1725-.0138Z"/>
    <path class="st0" d="M1.5665,28.7634L105.3152,10.6409c.5893-.1037.9839-.6644.8813-1.2537-.1026-.5904-.6655-.9829-1.2537-.8813L1.1941,26.6284c-.5898.1037-.9839.6644-.8808,1.2537.0915.5269.5491.8972,1.0659.8972.0619,0,.1243-.0053.1873-.0159Z"/>
    <path class="st0" d="M1.4851,34.0206L107.3497,13.9176c.5882-.1111.9744-.6782.8623-1.2664-.1111-.5872-.6697-.9702-1.2664-.8623L1.0809,31.8919c-.5877.1111-.9739.6782-.8623,1.2664.0984.5195.5528.8813,1.0633.8813.0667,0,.1349-.0063.2031-.019Z"/>
    <path class="st0" d="M1.4015,39.3667l103.8618-21.3029c.5861-.1206.9638-.693.8432-1.2791-.1196-.5851-.6866-.9628-1.2791-.8432L.9666,37.2444c-.5867.1206-.9644.693-.8438,1.2791.1053.5121.5565.8654,1.0601.8654.0719,0,.1455-.0074.2185-.0222Z"/>
    <path class="st0" d="M1.3168,44.8027l107.7024-23.732c.5851-.1291.9543-.7067.8252-1.2908s-.712-.9533-1.2908-.8252L.8503,42.6867c-.584.1291-.9533.7067-.8247,1.2908.1116.5057.5597.8506,1.0569.8506.0772,0,.1555-.0085.2343-.0254Z"/>
    <path class="st0" d="M5.1754,49.3987l102.6388-24.1796c.5819-.1375.9427-.7205.8062-1.3035-.1375-.5819-.7258-.9384-1.3035-.8062L4.6781,47.289c-.5824.1375-.9432.7205-.8057,1.3035.1174.4983.5623.8348,1.0532.8348.0825,0,.1661-.0095.2497-.0286Z"/>
    <path class="st0" d="M8.0521,54.2094l103.0757-25.8554c.5808-.1449.9332-.7343.7872-1.314-.1449-.5808-.7406-.93-1.314-.7872L7.5252,52.1082c-.5803.1449-.9332.7343-.7872,1.314.1233.492.5644.82,1.0495.82.0873,0,.1762-.0106.2645-.0328Z"/>
    <path class="st0" d="M9.2825,59.4592l105.2626-28.0127c.5787-.1545.9226-.748.7692-1.3257-.1534-.5787-.7469-.9205-1.3257-.7692L8.725,57.3644c-.5782.1545-.922.748-.7681,1.3257.1291.4856.5671.8051,1.0464.8051.092,0,.1857-.0116.2793-.036Z"/>
    <path class="st0" d="M10.2882,64.8201l95.6766-26.924c.5766-.1619.912-.7607.7501-1.3363-.1619-.5766-.7639-.9099-1.3363-.7501L9.701,62.7337c-.5761.1619-.9115.7607-.7491,1.3363.1344.4782.5692.7903,1.0421.7903.0973,0,.1957-.0127.2941-.0402Z"/>
    <path class="st0" d="M13.2516,69.6573l96.14-28.5258c.5734-.1703.9014-.7734.7311-1.3468-.1703-.5734-.7702-.9014-1.3468-.7311L12.6348,67.5794c-.5734.1703-.9004.7734-.73,1.3468.1397.4708.5708.7755,1.0379.7755.1021,0,.2058-.0138.3089-.0444Z"/>
    <path class="st0" d="M14.3831,75.0626l93.0427-29.0315c.5713-.1788.8898-.7861.712-1.3574-.1788-.5713-.785-.8866-1.3574-.712L13.7378,72.9932c-.5713.1788-.8898.7861-.7115,1.3574.1449.4634.5724.7607,1.0337.7607.1069,0,.2158-.0159.3232-.0487Z"/>
    <path class="st0" d="M17.8232,79.7633l81.4063-26.6489c.5681-.1862.8781-.7977.6919-1.3669-.1852-.566-.7935-.8781-1.3669-.6919l-81.4052,26.6489c-.5687.1862-.8787.7977-.6925,1.3669.1492.456.5734.7459,1.0294.7459.1116,0,.2254-.0169.337-.054Z"/>
    <path class="st0" d="M19.3198,85.1136l78.9396-27.052c.566-.1947.8676-.8104.6739-1.3765-.1947-.566-.8115-.8665-1.3765-.6739l-78.9396,27.052c-.566.1947-.8676.8104-.6734,1.3765.1539.4497.5745.7321,1.0247.7321.1164,0,.2349-.019.3513-.0582Z"/>
    <path class="st0" d="M18.9754,91.1633l77.3531-27.6964c.5639-.2021.857-.8221.6549-1.3849-.2021-.565-.8242-.858-1.3849-.6549l-77.3531,27.6964c-.5634.2021-.8565.8221-.6549,1.3849.1582.4433.575.7184,1.0199.7184.1211,0,.2444-.0201.365-.0635Z"/>
    <path class="st0" d="M17.4402,97.7567l76.2253-28.4645c.5607-.2095.8453-.8326.6359-1.3934-.2084-.5607-.8326-.8453-1.3934-.6359l-76.2253,28.4645c-.5607.2095-.8453.8326-.6364,1.3934.1629.4359.5761.7046,1.0152.7046.1259,0,.2539-.0222.3788-.0688Z"/>
    <path class="st0" d="M13.085,105.5807l79.8315-31.0386c.5576-.2169.8337-.8443.6168-1.4019-.2169-.5576-.8464-.8358-1.4019-.6168L12.2999,103.562c-.5576.2169-.8342.8443-.6173,1.4019.1666.4285.5761.6909,1.0099.6909.1307,0,.2634-.0233.3925-.0741Z"/>
    <path class="st0" d="M12.6798,112.0302l77.3896-31.2809c.5544-.2243.8221-.8549.5978-1.4103-.2243-.5544-.8538-.8231-1.4103-.5978L11.8683,110.0221c-.5549.2243-.8231.8549-.5988,1.4103.1703.4211.5766.6771,1.0051.6771.1349,0,.2724-.0254.4052-.0794Z"/>
    <path class="st0" d="M11.8593,118.7549l78.8978-33.1059c.5523-.2317.8115-.8665.5798-1.4177-.2306-.5523-.8707-.8115-1.4177-.5798L11.0213,116.7574c-.5517.2317-.8115.8665-.5798,1.4177.174.4147.5761.6644.9993.6644.1397,0,.282-.0265.4184-.0846Z"/>
    <path class="st0" d="M12.8067,124.8246l82.4458-35.8673c.5491-.2391.8009-.8771.5618-1.4251-.2381-.5491-.875-.802-1.4251-.5618L11.9423,122.8377c-.5486.2391-.7998.8771-.5613,1.4251.1777.4084.5756.6517.994.6517.1444,0,.291-.0286.4317-.0899Z"/>
    <path class="st0" d="M9.5148,132.8623l97.726-44.0224c.5449-.2465.7882-.8877.5428-1.4336-.2465-.5459-.8834-.7893-1.4336-.5428L8.625,130.8859c-.5454.2465-.7887.8877-.5428,1.4336.1804.401.575.638.9882.638.1486,0,.2999-.0307.4444-.0952Z"/>
    <path class="st0" d="M29.6342,130.1813l88.9715-41.4546c.5428-.2529.7776-.8972.5248-1.4389-.2507-.5417-.8982-.7787-1.4389-.5248l-88.9715,41.4546c-.5428.2529-.7776.8972-.5248,1.4389.183.3946.5745.6263.9829.6263.1524,0,.3089-.0328.456-.1016Z"/>
    <path class="st0" d="M5.6192,141.3707l16.1678-7.533c.5428-.2529.7776-.8972.5248-1.4389-.2518-.5417-.8982-.7776-1.4389-.5248l-16.1689,7.533c-.5422.2529-.7771.8972-.5242,1.4389.1836.3946.5745.6263.9824.6263.1534,0,.3089-.0328.4571-.1016Z"/>
    <path class="st0" d="M18.9807,141.7823l6.1549-2.9635c.5396-.2603.766-.9078.5068-1.4463-.2603-.5396-.9067-.7649-1.4463-.5068l-6.1549,2.9635c-.5396.2603-.766.9078-.5063,1.4463.1867.3883.5734.6136.9765.6136.1576,0,.3179-.0339.4692-.1069Z"/>
    <path class="st0" d="M30.0754,136.4415l99.5367-47.9179c.5396-.2603.766-.9078.5068-1.4463-.2603-.5396-.9067-.766-1.4463-.5068l-99.5367,47.9179c-.5396.2603-.766.9078-.5068,1.4463.1873.3883.5745.6136.9776.6136.1576,0,.3174-.0339.4687-.1069Z"/>
    <path class="st0" d="M32.6284,141.7251l107.677-53.5031c.5353-.2666.7544-.9162.4877-1.4526-.2666-.5353-.9141-.7554-1.4526-.4877l-107.677,53.5031c-.5353.2666-.7544.9162-.4877,1.4526.1894.3809.5724.6009.9712.6009.1619,0,.3259-.036.4814-.1132Z"/>
    <path class="st0" d="M40.2227,144.4347l110.2723-56.5004c.5322-.273.7427-.9258.4698-1.4579-.273-.5332-.9236-.7459-1.4579-.4698l-110.2723,56.5004c-.5322.273-.7427.9258-.4698,1.4579.1915.3745.5713.5893.9649.5893.1661,0,.3343-.0381.493-.1196Z"/>
    <path class="st0" d="M46.5993,147.6425l112.6221-59.4523c.529-.2793.7321-.9353.4528-1.4643-.2793-.529-.9353-.7311-1.4643-.4528l-112.6221,59.4523c-.529.2793-.7321.9353-.4528,1.4643.1947.3682.5703.5777.9596.5777.1703,0,.3439-.0402.5047-.1248Z"/>
    <path class="st0" d="M54.6052,149.8538l102.8631-55.8974c.5258-.2857.7205-.9437.4348-1.4696-.2867-.5269-.9437-.7194-1.4696-.4348l-102.8631,55.8974c-.5258.2857-.7205.9437-.4348,1.4696.1968.3618.5692.566.9533.566.1746,0,.3523-.0423.5163-.1312Z"/>
    <path class="st0" d="M80.3823,141.9717l75.1583-42.01c.5216-.292.7089-.9522.4169-1.4749-.292-.5216-.9522-.7067-1.4749-.4169l-75.1583,42.01c-.5216.292-.7089.9522-.4169,1.4749.1989.3544.5671.5544.9469.5544.1788,0,.3608-.0444.5279-.1375Z"/>
    <path class="st0" d="M63.1739,151.5899l8.7772-4.906c.5216-.292.7089-.9522.4169-1.4749-.2931-.5216-.9533-.7089-1.4749-.4169l-8.7772,4.906c-.5216.292-.7089.9522-.4169,1.4749.1989.3544.5671.5544.9469.5544.1788,0,.3608-.0444.5279-.1375Z"/>
    <path class="st0" d="M89.1013,143.1757l67.1831-38.5959c.5184-.2984.6983-.9607.3999-1.4791s-.9596-.6962-1.4791-.3999l-67.1831,38.5959c-.5184.2984-.6983.9607-.3999,1.4791.2.3491.565.5438.9406.5438.183,0,.3682-.0466.5385-.1439Z"/>
    <path class="st0" d="M92.3134,147.4468l43.9282-25.92c.5152-.3036.6866-.9681.383-1.4833-.3047-.5152-.9691-.6877-1.4833-.383l-43.9282,25.92c-.5152.3036-.6866.9681-.383,1.4833.2021.3428.5629.5332.9342.5332.1873,0,.3766-.0487.5491-.1502Z"/>
    <path class="st0" d="M146.683,115.365l12.1723-7.1828c.5152-.3047.6866-.9681.383-1.4833-.3047-.5163-.9702-.6866-1.4833-.383l-12.1723,7.1828c-.5152.3047-.6866.9681-.383,1.4833.2021.3428.5629.5332.9342.5332.1873,0,.3766-.0487.5491-.1502Z"/>
    <path class="st0" d="M96.0587,151.3836l40.0654-24.2663c.5121-.31.6761-.9765.3661-1.4875-.3111-.511-.9776-.6729-1.4875-.3661l-40.0654,24.2663c-.5121.31-.6761.9765-.3661,1.4875.2042.3364.5618.5227.9279.5227.1915,0,.3851-.0508.5597-.1566Z"/>
    <path class="st0" d="M150.7531,118.2576l10.8572-6.5755c.5121-.31.6761-.9765.3661-1.4875-.31-.5121-.9797-.6739-1.4875-.3661l-10.8572,6.5755c-.5121.31-.6761.9765-.3661,1.4875.2042.3364.5618.5227.9279.5227.1915,0,.3851-.0508.5597-.1566Z"/>
    <path class="st0" d="M103.5166,152.9854l40.0824-24.9011c.5089-.3163.6644-.9839.3491-1.4918-.3153-.51-.9839-.6634-1.4918-.3491l-40.0824,24.9011c-.5089.3163-.6644.9839-.3491,1.4918.2053.3312.5597.5121.9215.5121.1947,0,.3925-.0529.5703-.1629Z"/>
    <path class="st0" d="M155.7924,120.509l7.4938-4.6552c.5089-.3163.6644-.9839.3491-1.4918-.3163-.51-.9839-.6644-1.4918-.3491l-7.4938,4.6552c-.5089.3163-.6644.9839-.3491,1.4918.2053.3312.5597.5121.9215.5121.1947,0,.3925-.0529.5703-.1629Z"/>
    <path class="st0" d="M105.8844,157.684l50.7989-32.3505c.5047-.3216.6538-.9913.3322-1.496-.3216-.5057-.9924-.6528-1.496-.3322l-50.7989,32.3505c-.5047.3216-.6538.9913-.3322,1.496.2063.3248.5576.5015.9152.5015.1989,0,.401-.055.5808-.1693Z"/>
    <path class="st0" d="M160.4666,122.9234l4.1558-2.6471c.5047-.3216.6538-.9913.3322-1.496-.3227-.5068-.9935-.6528-1.496-.3322l-4.1558,2.6471c-.5047.3216-.6538.9913-.3322,1.496.2074.3248.5576.5015.9152.5015.1989,0,.401-.055.5808-.1693Z"/>
    <path class="st0" d="M109.0076,161.9055l47.0356-30.6894c.5004-.3269.6422-.9988.3153-1.5002-.328-.5015-.9988-.6401-1.5002-.3153l-47.0356,30.6894c-.5004.3269-.6422.9988-.3153,1.5002.2084.3185.5555.4909.9088.4909.2031,0,.4084-.0571.5914-.1756Z"/>
    <path class="st0" d="M160.7671,128.133l1.241-.8094c.5015-.3269.6433-.9988.3163-1.4992-.3269-.5015-.9998-.6422-1.4992-.3163l-1.241.8094c-.5015.3269-.6433.9988-.3163,1.4992.2084.3185.5544.492.9088.492.2031,0,.4084-.0571.5904-.1756Z"/>
    <path class="st0" d="M113.3623,165.2932l47.6598-31.8427c.4973-.3322.6316-1.0051.2984-1.5024-.3322-.4962-1.004-.6327-1.5024-.2984l-47.6598,31.8427c-.4973.3322-.6316,1.0051-.2984,1.5024.2084.3121.5512.4814.9014.4814.2063,0,.4158-.0592.6009-.183Z"/>
    <path class="st0" d="M117.8641,168.5328l25.9052-17.712c.4941-.3375.62-1.0114.2825-1.5055-.3364-.493-1.0104-.621-1.5055-.2825l-25.9052,17.712c-.4941.3375-.621,1.0114-.2825,1.5055.2095.3068.5491.4719.8951.4719.2105,0,.4232-.0614.6105-.1894Z"/>
    <path class="st0" d="M145.0198,149.9649l26.3516-18.0178c.4941-.3375.621-1.0114.2825-1.5055-.3364-.493-1.0093-.6189-1.5055-.2825l-26.3516,18.0178c-.4941.3375-.621,1.0114-.2825,1.5055.2095.3068.5491.4719.8951.4719.2105,0,.4232-.0614.6105-.1894Z"/>
    <path class="st0" d="M135.8269,162.3064l11.3439-7.9339c.4899-.3428.6094-1.0178.2666-1.5087-.3428-.492-1.0178-.6094-1.5087-.2666l-11.3439,7.9339c-.4899.3428-.6094,1.0178-.2666,1.5087.2105.3015.547.4623.8887.4623.2148,0,.4306-.0635.62-.1957Z"/>
    <path class="st0" d="M150.1035,152.321l23.6114-16.5143c.4899-.3428.6094-1.0178.2666-1.5087-.3439-.4909-1.0178-.6094-1.5087-.2666l-23.6114,16.5143c-.4899.3428-.6094,1.0178-.2666,1.5087.2105.3015.547.4623.8887.4623.2148,0,.4306-.0635.62-.1957Z"/>
    <path class="st0" d="M141.4903,164.4002l8.9845-6.4242c.4867-.3481.5988-1.0252.2507-1.5119-.3481-.4856-1.0231-.5988-1.5119-.2507l-8.9845,6.4242c-.4867.3481-.5988,1.0252-.2507,1.5119.2116.2952.5449.4528.8824.4528.2179,0,.438-.0656.6295-.2021Z"/>
    <path class="st0" d="M155.5036,154.3799l6.6591-4.7621c.4867-.3481.5988-1.0252.2507-1.5119-.3481-.4856-1.0231-.5988-1.5119-.2507l-6.6591,4.7621c-.4867.3481-.5988,1.0252-.2507,1.5119.2116.2952.5449.4528.8824.4528.2179,0,.438-.0656.6295-.2021Z"/>
    <path class="st0" d="M173.57,141.4606l.7015-.5015c.4867-.3481.5988-1.0241.2507-1.5119-.3481-.4856-1.0231-.5999-1.5119-.2507l-.7015.5015c-.4867.3481-.5988,1.0241-.2507,1.5119.2116.2952.5438.4528.8824.4528.2179,0,.438-.0656.6295-.2021Z"/>
    <path class="st0" d="M167.6357,145.7032l.8559-.6115c.4867-.3481.5999-1.0241.2518-1.5108s-1.0241-.5999-1.5108-.2518l-.8559.6115c-.4867.3481-.5999,1.0241-.2518,1.5108.2116.2962.5438.4539.8824.4539.2179,0,.438-.0656.6285-.2021Z"/>
    <path class="st0" d="M159.9186,157.0767l6.4274-4.6975c.4835-.3534.5882-1.0316.2359-1.514-.3534-.4835-1.0305-.5904-1.514-.2359l-6.4274,4.6975c-.4835.3534-.5882,1.0316-.2359,1.514.2127.291.5417.4444.876.4444.2211,0,.4454-.0677.638-.2084Z"/>
    <path class="st0" d="M142.3314,169.9283l6.1428-4.488c.4835-.3534.5882-1.0305.2359-1.514-.3534-.4835-1.0305-.5904-1.514-.2359l-6.1428,4.488c-.4835.3534-.5882,1.0305-.2359,1.514.2127.291.5417.4444.876.4444.2211,0,.4454-.0677.638-.2084Z"/>
    <path class="st0" d="M163.9221,160.0307l5.6095-4.1876c.4793-.3587.5777-1.0368.2201-1.5172-.3597-.4782-1.0368-.5777-1.5172-.2201l-5.6095,4.1876c-.4793.3587-.5777,1.0368-.2201,1.5172.2137.2846.5396.4348.8697.4348.2254,0,.4528-.0698.6475-.2148Z"/>
    <path class="st0" d="M167.915,162.955l7.1457-5.4466c.4761-.3618.5671-1.0421.2042-1.5182-.3618-.474-1.04-.5692-1.5182-.2042l-7.1457,5.4466c-.4761.3618-.5671,1.0421-.2042,1.5182.2127.2793.5353.4264.8623.4264.2285,0,.4592-.0719.656-.2222Z"/>
    <path class="st0" d="M172.1205,165.6772l8.5201-6.6284c.4719-.3671.5565-1.0474.1894-1.5203-.3671-.4698-1.0464-.5586-1.5203-.1894l-8.5201,6.6284c-.4719.3671-.5565,1.0474-.1894,1.5203.2137.274.5332.4179.8559.4179.2317,0,.4666-.0741.6644-.2285Z"/>
    <path class="st0" d="M175.9156,168.6809l.2179-.1725c.4698-.3714.5491-1.0527.1777-1.5214-.3703-.4687-1.0506-.5502-1.5214-.1777l-.2179.1725c-.4698.3714-.5491,1.0527-.1777,1.5214.2137.2708.5301.4116.8506.4116.2349,0,.4719-.0762.6708-.2338Z"/>
    <path class="st0" d="M178.1384,166.9172l6.0496-4.8012c.4687-.3714.547-1.0538.1746-1.5225-.3724-.4687-1.0517-.548-1.5225-.1746l-6.0496,4.8012c-.4687.3714-.547,1.0538-.1746,1.5225.2137.2687.5301.4094.8496.4094.2359,0,.4729-.0762.6729-.2349Z"/>
    <path class="st0" d="M187.4647,165.3789l.1883-.1534c.4634-.3777.5332-1.0601.1555-1.5246-.3756-.4623-1.058-.5332-1.5246-.1555l-.1883.1534c-.4634.3777-.5332,1.0601-.1555,1.5246.2137.2624.5258.3989.8411.3989.2402,0,.4824-.0794.6835-.2433Z"/>
    <path class="st0" d="M181.1558,170.4848l3.9844-3.2248c.4655-.3766.5375-1.0591.1608-1.5235-.3756-.4645-1.0591-.5375-1.5235-.1608l-3.9844,3.2248c-.4655.3766-.5375,1.0591-.1608,1.5235.2137.2645.5269.402.8432.402.2391,0,.4803-.0794.6803-.2412Z"/>
  </g>
</svg>